<svg xmlns="http://www.w3.org/2000/svg" version="1.1" width="32px" height="32px"
    style="shape-rendering:geometricPrecision; text-rendering:geometricPrecision; image-rendering:optimizeQuality; fill-rule:evenodd; clip-rule:evenodd"
    xmlns:xlink="http://www.w3.org/1999/xlink">
    <g>
        <path style="opacity:0.856" fill="#6957b3"
            d="M 9.5,-0.5 C 13.5,-0.5 17.5,-0.5 21.5,-0.5C 22.1667,0.166667 22.8333,0.833333 23.5,1.5C 23.1667,1.5 22.8333,1.5 22.5,1.5C 20.4727,1.33788 18.4727,1.50454 16.5,2C 15.2949,3.37561 13.9616,4.54227 12.5,5.5C 10.3367,6.72015 8.17001,6.72015 6,5.5C 2.24627,7.19391 0.41294,10.1939 0.5,14.5C 0.285769,16.9418 1.28577,18.6085 3.5,19.5C 4.27372,22.3809 5.60705,25.0476 7.5,27.5C 11.3224,28.2267 14.9891,29.2267 18.5,30.5C 18.5,30.8333 18.5,31.1667 18.5,31.5C 15.5,31.5 12.5,31.5 9.5,31.5C 5.16667,29.1667 1.83333,25.8333 -0.5,21.5C -0.5,17.5 -0.5,13.5 -0.5,9.5C 1.83333,5.16667 5.16667,1.83333 9.5,-0.5 Z" />
    </g>
    <g>
        <path style="opacity:0.845" fill="#6a5bb3"
            d="M 22.5,1.5 C 22.8333,1.5 23.1667,1.5 23.5,1.5C 27.1729,3.17292 29.8396,5.83959 31.5,9.5C 31.5,13.5 31.5,17.5 31.5,21.5C 29.1667,25.8333 25.8333,29.1667 21.5,31.5C 20.5,31.5 19.5,31.5 18.5,31.5C 18.5,31.1667 18.5,30.8333 18.5,30.5C 18.5,29.5 18.5,28.5 18.5,27.5C 20.099,27.7678 21.4324,27.4345 22.5,26.5C 23.9063,26.0269 24.573,25.0269 24.5,23.5C 26.0295,22.9332 27.5295,22.2666 29,21.5C 30.0651,18.4273 30.2318,15.4273 29.5,12.5C 27.0421,10.5703 24.7087,8.40359 22.5,6C 20.4024,5.32239 18.4024,5.48905 16.5,6.5C 16.5,5.83333 16.1667,5.5 15.5,5.5C 15.9528,4.54163 16.6195,3.7083 17.5,3C 19.3817,2.80192 21.0484,2.30192 22.5,1.5 Z" />
    </g>
    <g>
        <path style="opacity:1" fill="#fc70c2"
            d="M 12.5,5.5 C 10.7877,8.71094 8.12104,10.5443 4.5,11C 6.16667,11.6667 7.83333,11.6667 9.5,11C 11.3702,8.96039 13.3702,7.12706 15.5,5.5C 16.1667,5.5 16.5,5.83333 16.5,6.5C 15.1667,9.16667 15.1667,11.8333 16.5,14.5C 13.8127,14.3359 11.146,14.5026 8.5,15C 6.85883,16.129 5.85883,17.629 5.5,19.5C 4.83333,19.5 4.16667,19.5 3.5,19.5C 1.28577,18.6085 0.285769,16.9418 0.5,14.5C 0.41294,10.1939 2.24627,7.19391 6,5.5C 8.17001,6.72015 10.3367,6.72015 12.5,5.5 Z" />
    </g>
    <g>
        <path style="opacity:1" fill="#f1c4e6"
            d="M 22.5,1.5 C 21.0484,2.30192 19.3817,2.80192 17.5,3C 16.6195,3.7083 15.9528,4.54163 15.5,5.5C 13.3702,7.12706 11.3702,8.96039 9.5,11C 7.83333,11.6667 6.16667,11.6667 4.5,11C 8.12104,10.5443 10.7877,8.71094 12.5,5.5C 13.9616,4.54227 15.2949,3.37561 16.5,2C 18.4727,1.50454 20.4727,1.33788 22.5,1.5 Z" />
    </g>
    <g>
        <path style="opacity:1" fill="#f8ed5e"
            d="M 29.5,12.5 C 28.448,12.3505 27.448,12.5172 26.5,13C 25.6719,14.9923 24.3386,16.4923 22.5,17.5C 20.7837,15.9752 18.7837,14.9752 16.5,14.5C 15.1667,11.8333 15.1667,9.16667 16.5,6.5C 18.4024,5.48905 20.4024,5.32239 22.5,6C 24.7087,8.40359 27.0421,10.5703 29.5,12.5 Z" />
    </g>
    <g>
        <path style="opacity:1" fill="#59cc63"
            d="M 16.5,14.5 C 18.7837,14.9752 20.7837,15.9752 22.5,17.5C 22.366,19.2915 22.6993,20.9582 23.5,22.5C 20.5,22.5 17.5,22.5 14.5,22.5C 10.2789,24.6046 7.27888,23.6046 5.5,19.5C 5.85883,17.629 6.85883,16.129 8.5,15C 11.146,14.5026 13.8127,14.3359 16.5,14.5 Z" />
    </g>
    <g>
        <path style="opacity:1" fill="#56d5f5"
            d="M 29.5,12.5 C 30.2318,15.4273 30.0651,18.4273 29,21.5C 27.5295,22.2666 26.0295,22.9332 24.5,23.5C 24.5,22.8333 24.1667,22.5 23.5,22.5C 22.6993,20.9582 22.366,19.2915 22.5,17.5C 24.3386,16.4923 25.6719,14.9923 26.5,13C 27.448,12.5172 28.448,12.3505 29.5,12.5 Z" />
    </g>
    <g>
        <path style="opacity:1" fill="#8779bf"
            d="M 3.5,19.5 C 4.16667,19.5 4.83333,19.5 5.5,19.5C 7.27888,23.6046 10.2789,24.6046 14.5,22.5C 14.5106,24.0174 15.1772,25.1841 16.5,26C 18.4727,26.4955 20.4727,26.6621 22.5,26.5C 21.4324,27.4345 20.099,27.7678 18.5,27.5C 18.5,28.5 18.5,29.5 18.5,30.5C 14.9891,29.2267 11.3224,28.2267 7.5,27.5C 5.60705,25.0476 4.27372,22.3809 3.5,19.5 Z" />
    </g>
    <g>
        <path style="opacity:1" fill="#f9b82a"
            d="M 14.5,22.5 C 17.5,22.5 20.5,22.5 23.5,22.5C 24.1667,22.5 24.5,22.8333 24.5,23.5C 24.573,25.0269 23.9063,26.0269 22.5,26.5C 20.4727,26.6621 18.4727,26.4955 16.5,26C 15.1772,25.1841 14.5106,24.0174 14.5,22.5 Z" />
    </g>
</svg>