<svg xmlns="http://www.w3.org/2000/svg" viewBox="0 0 208 160" fill="none">
    <script xmlns="" />
    <g clip-path="url(#clip0)">
        <path
            d="M109.85 173.922c-3.77-5.63-7.67-11.259-11.44-16.889-4.16-6.166-8.32-12.198-12.35-18.364-1.3-2.01-2.99-4.021-4.16-6.165-2.6-5.362-2.6-12.466-2.6-18.096 0 .402 6.24 0 7.02-.134 4.81-.67 7.02-9.383 8.19-14.074 1.17 2.547 4.94 10.589 5.85 13.27 3.38-6.836 7.15-13.404 11.31-19.838l5.2 1.34c5.2 7.105 9.1 15.415 12.61 23.726l15.6-28.551.52-.67a767.576 767.576 0 0129.51 15.012c6.63 3.619 14.04 7.641 18.72 14.209 5.98 8.31 4.03 17.425 2.99 26.942-1.04 9.784-2.6 19.703-4.16 29.354"
            fill="#D6D7D8" />
        <path
            d="M56.68 77.28c4.42-3.218 8.71-6.703 12.74-10.456 4.03-3.619 7.15-7.64 10.53-11.795 5.2 1.206 11.7 4.423 16.77 6.3M56.68 67.226c-1.82 13.136 1.3 28.282 10.27 38.067M48.1 87.6c.78 7.373 4.29 14.477 9.49 19.704M42.77 96.715c1.43 4.692 4.29 8.847 8.19 11.662M68.12 44.306c4.55 2.815 8.32 6.166 11.83 10.32"
            stroke="#1D1D1B" stroke-width="1.95" stroke-miterlimit="10" stroke-linecap="round"
            stroke-linejoin="round" />
        <path
            d="M144.82 36.934c0-5.362 0-11.93-.65-17.291-.52-4.558-2.08-7.775-5.07-10.992-2.6-2.949-6.24-4.825-9.88-6.166-3.38-1.206-6.89-1.608-10.4-1.742-3.25 0-6.89-.134-10.14.804-2.86.804-5.59 2.145-8.06 3.887-2.21 1.475-4.16 3.351-5.85 5.63-2.47 3.351-3.38 7.238-3.77 11.393l.26 1.877c.39 1.206 1.95 1.742 3.12 1.608 1.69-.134 3.25-.938 4.68-1.876 1.95-1.34 3.64-2.815 4.94-4.825-.13 1.608.13 3.35 1.3 4.423.52.402 1.17.67 1.82.67 4.68.67 8.84-2.815 12.35-5.362-.78 1.743-1.04 3.753-.65 5.63.13.67.39 1.474.91 2.01.39.403 1.04.67 1.69.805 1.82.402 3.77-.134 5.33-.938 1.69-.805 3.12-2.011 4.55-3.217-.52 2.144-.91 4.96-.39 7.238.52 2.144 1.82 4.29 3.9 5.093 0 3.351.13 5.228.13 8.579"
            fill="#43A7F5" />
        <path
            d="M139.361 57.173c.52 0 1.04 0 1.56-.134 1.95-.268 3.77-1.474 5.07-2.948 2.08-2.28 3.12-5.228 3.25-8.445.26-4.021-1.04-8.042-5.07-8.846-2.08-.403-3.38.402-4.94 1.876-1.17 1.072-2.73 3.083-3.38 4.557"
            fill="#fff" />
        <path
            d="M139.361 57.173c.52 0 1.04 0 1.56-.134 1.95-.268 3.77-1.474 5.07-2.948 2.08-2.28 3.12-5.228 3.25-8.445.26-4.021-1.04-8.042-5.07-8.846-2.08-.403-3.38.402-4.94 1.876-1.17 1.072-2.73 3.083-3.38 4.557"
            stroke="#1D1D1B" stroke-width="1.95" stroke-miterlimit="10" stroke-linecap="round"
            stroke-linejoin="round" />
        <path
            d="M139.36 55.565c-1.04 4.29-2.6 9.919-3.77 14.208-1.04 3.62-6.89 6.568-10.14 7.775l-7.41 2.814c-4.81 1.743-10.92 3.62-15.6.805-.78-.403-2.47-1.475-2.99-2.145M91.65 31.974c4.55-.402 9.36 1.34 12.22 5.228 4.55 5.897 2.47 15.816 1.56 22.652 1.95-1.474 3.9-2.144 5.85-3.619"
            stroke="#1D1D1B" stroke-width="1.95" stroke-miterlimit="10" stroke-linecap="round"
            stroke-linejoin="round" />
        <path
            d="M96.85 41.088c0 1.207.26 2.414.78 3.486.13.403.39.939.78 1.207.91.67 1.951.536 2.731-.402.65-.939 1.17-1.877 1.56-2.95M116.61 41.759c0 1.206.26 2.413.78 3.486.13.402.39.938.78 1.206.91.67 1.95.537 2.73-.402.65-.938 1.17-1.877 1.56-2.95M112.45 36.937c4.42-1.345 9.36-1.345 13.78 0M102.96 67.226c3.25 2.413 9.1 2.145 12.48.402M134.55 164.137c.13-14.074 2.99-27.478 11.05-39.006 1.04-1.474 3.9-3.082 4.55-.134.26 1.073-.13 2.145-.65 3.217M154.96 119.77c-5.85 7.908-10.27 16.889-13 26.272M161.2 129.823c.26-1.073.65-2.145.91-3.217.26-.938.39-3.083-.52-3.753-3.25-2.547-7.93 9.517-8.58 11.125-2.08 4.825-3.64 9.785-4.81 14.878"
            stroke="#1D1D1B" stroke-width="1.95" stroke-miterlimit="10" stroke-linecap="round"
            stroke-linejoin="round" />
        <path
            d="M157.3 163.065c.65-5.362 1.43-10.723 2.47-15.951.65-2.949 1.3-5.898 1.82-8.847.39-2.278 1.56-4.691 1.04-7.104a1.433 1.433 0 00-1.04-1.072c-2.34-.134-4.29 7.372-4.81 8.981-1.3 3.753-2.34 7.64-3.38 11.527M137.54 78.62a2203.43 2203.43 0 00-20.67 16.352c5.2 7.105 9.1 15.415 12.61 23.726l15.6-28.55M94.51 100.2c1.17 2.547 4.94 10.589 5.851 13.27 3.38-6.836 7.15-13.404 11.31-19.838M107.9 127.678c2.47.134 5.85.268 8.45.671.13-11.26.26-22.385.13-33.644M112.97 104.892c-.52.403-1.3.537-1.95-.134-1.17-1.206-.26-3.218 1.43-2.815 1.82.268 1.43 2.145.52 2.949z"
            stroke="#1D1D1B" stroke-width="1.95" stroke-miterlimit="10" stroke-linecap="round"
            stroke-linejoin="round" />
        <path
            d="M112.45 119.905c-.52.402-1.3.536-1.95-.134-1.17-1.207-.26-3.218 1.43-2.816 1.82.268 1.56 2.145.52 2.95zM43.68 107.706c-1.17-.938-2.21-2.01-3.25-3.217-12.74-14.878-7.41-37.799 2.99-52.677 5.72-8.177 15.86-9.92 24.96-7.774 5.59-1.877 12.35-.939 17.42 2.144 8.32 4.825 11.18 13.806 12.48 23.055.65 4.825.91 9.65 1.56 14.342.52 3.62 1.04 7.506 2.21 11.126"
            stroke="#1D1D1B" stroke-width="1.95" stroke-miterlimit="10" stroke-linecap="round"
            stroke-linejoin="round" />
        <path
            d="M96.33 64.948c-.13 7.506-.26 14.878-.65 22.384-.52 7.239-.52 15.683-4.55 21.983-5.07 8.176-18.33 5.227-24.57.402"
            stroke="#1D1D1B" stroke-width="1.95" stroke-miterlimit="10" stroke-linecap="round"
            stroke-linejoin="round" />
        <path
            d="M96.33 64.948c-5.46.402-9.49 4.289-10.66 9.785-1.17 5.227.52 12.6 2.86 17.29-2.21-.133-4.29-.133-6.5-.401M77.74 100.87c3.38.804 7.02.536 10.4-.67M69.16 79.29c1.17 2.682 4.42 4.961 6.5 1.877.78-1.206 1.43-2.413 1.82-3.754"
            stroke="#1D1D1B" stroke-width="1.95" stroke-miterlimit="10" stroke-linecap="round"
            stroke-linejoin="round" />
        <path
            d="M88.14 76.207c.26 1.609 1.3 2.95 2.6 3.486 2.47.939 4.03-2.011 4.55-4.692M79.3 114.408v7.105c0 3.887-.13 7.64 1.95 11.125"
            stroke="#1D1D1B" stroke-width="1.95" stroke-miterlimit="10" stroke-linecap="round"
            stroke-linejoin="round" />
        <path
            d="M81.25 131.029c-1.43-2.01-1.43-7.774-1.3-10.723-6.11.67-11.96 1.206-18.33 0-4.55-.804-8.84-2.547-13.13-4.289.13 3.753.13 9.785.13 11.259-4.29 3.217-18.85 13.672-19.76 14.074-1.04.268-2.21-.134-3.38.268-1.17.403-2.21 1.207-2.99 2.145-2.47 2.949-4.03 6.702-4.68 10.589-.65 4.156-1.04 8.043-.13 12.332l91.78 3.351c-9.75-12.6-17.68-27.746-28.21-39.006z"
            fill="#1D1D1B" />
        <path
            d="M48.36 127.678c9.62 6.704 21.32 7.106 31.85 2.682M57.59 172.716c-.65-7.507-2.21-15.281-5.72-21.983-2.21-4.289-5.59-8.31-10.27-10.053-2.6-.938-5.72-1.072-8.45-.268-1.69.536-3.25 1.475-4.03 3.217-.78 1.475-1.17 3.887-.65 5.63 1.04 2.681 4.42 1.34 5.07-.939.52-1.608-.13-3.619-1.04-4.825-4.16-5.496-12.48.536-14.69 5.094"
            stroke="#fff" stroke-width="1.95" stroke-miterlimit="10" stroke-linecap="round"
            stroke-linejoin="round" />
        <path
            d="M91.39 43.903A166.09 166.09 0 0191 27.82c0-2.413.13-4.96.39-7.373M91.52 24.2c.39 1.206 1.95 1.742 3.12 1.608 4.68-.402 10.27-6.434 12.09-10.59.39-.804.52-1.608.39-2.412-.13-.804-.91-1.475-1.69-1.34-.78.133-1.17.938-1.43 1.608-1.3 3.619-1.3 9.785 2.99 10.991 4.81 1.206 9.23-2.68 12.87-5.361-.78 1.742-1.04 3.753-.65 5.63.13.67.39 1.474.91 2.01.39.402 1.04.67 1.69.804 1.82.402 3.77-.134 5.33-.938 1.69-.804 3.12-2.01 4.55-3.217M111.67 93.632l-5.46-10.991"
            stroke="#1D1D1B" stroke-width="1.95" stroke-miterlimit="10" stroke-linecap="round"
            stroke-linejoin="round" />
    </g>
    <defs>
        <clipPath id="clip0">
            <path fill="#fff" d="M0 0h208v160H0z" />
        </clipPath>
    </defs>
    <script xmlns="" />
</svg>