<svg xmlns="http://www.w3.org/2000/svg" width="174" height="157" viewBox="0 0 174 157" fill="none">
    <script xmlns="" />
    <path
        d="M72.8709 94.68C61.6609 96.05 49.5609 95.64 39.1409 100.57C33.8709 103.07 29.4209 107.12 25.9909 111.79C20.2909 119.55 18.7109 128.95 17.4509 138.25C16.0009 149 14.0909 159.57 13.4309 170.42L13.8309 165.39C9.66093 144.47 6.38093 123.34 2.56093 102.41C0.300929 90.01 -2.43907 75.69 10.5009 67.97C18.1109 63.43 29.5209 64.28 38.1109 64.5C43.0609 64.62 48.0109 64.75 52.9609 64.87H52.9709C51.6509 72.38 49.1509 82.12 55.1509 88.09C58.9009 91.83 66.8709 92.68 71.2809 89.74C73.7709 88.08 74.0709 81.16 74.0709 81.16L72.8709 94.68Z"
        fill="#DAE0E5" />
    <path d="M131.844 24.9297H157.114" stroke="#1A2833" stroke-width="1.9297" stroke-miterlimit="10"
        stroke-linecap="round" stroke-linejoin="round" />
    <path d="M172.539 64.3097L157.109 24.9297" stroke="#1A2833" stroke-width="1.9297"
        stroke-miterlimit="10" stroke-linecap="round" stroke-linejoin="round" />
    <path d="M129.469 64.3096H172.539" stroke="#1A2833" stroke-width="1.9297" stroke-miterlimit="10"
        stroke-linecap="round" stroke-linejoin="round" />
    <path d="M146.469 64.3096V87.1996" stroke="#1A2833" stroke-width="1.9297" stroke-miterlimit="10"
        stroke-linecap="round" stroke-linejoin="round" />
    <path
        d="M139.303 135.28C136.753 129.64 134.673 124.81 134.203 118.53C133.713 111.99 134.893 104.36 136.583 98.0299L136.613 97.8899C132.993 96.7299 129.183 96.0499 125.283 95.8599C125.283 95.8599 124.473 97.3199 123.093 99.8099C123.113 99.8099 123.123 99.7999 123.143 99.7999C126.023 99.1999 125.723 102.26 125.053 103.97C123.073 109 120.943 114.01 118.173 118.67C115.373 123.39 111.993 126.69 108.083 130.32C102.973 135.06 89.5728 161.51 86.6328 168.81C94.8328 170.12 104.103 169.11 112.423 169.17C121.143 169.23 129.853 169.28 138.573 169.4C138.583 169.4 138.693 169.41 138.693 169.4C140.163 164.03 142.623 158.77 143.293 153.23C143.973 147.68 141.583 140.32 139.303 135.28Z"
        fill="#1A2833" stroke="#1A2833" stroke-width="1.9297" stroke-miterlimit="10"
        stroke-linecap="round" stroke-linejoin="round" />
    <path
        d="M51.6884 98.0297C57.3484 107.25 66.3984 114.05 76.5084 117.7C79.0884 118.63 87.4584 120.48 87.4584 120.48C85.0184 124.1 47.7884 167.96 47.7884 167.96C48.1684 154.69 47.6484 136.89 45.6284 123.75C44.4684 116.23 42.5084 107.83 39.4484 100.81L39.1484 100.57C42.9284 98.7797 46.9184 97.6997 51.0184 96.9697L51.6884 98.0297Z"
        fill="#1A2833" stroke="#1A2833" stroke-width="1.9297" stroke-miterlimit="10"
        stroke-linecap="round" stroke-linejoin="round" />
    <path
        d="M115.691 74.5498C115.721 74.5598 115.741 74.5598 115.771 74.5698C115.981 74.6298 116.191 74.8398 116.391 75.1198C116.941 75.9198 118.211 75.6298 118.341 74.6598C118.921 70.3298 119.111 65.9298 119.151 61.5898C119.221 53.3998 119.301 44.9398 118.841 36.6198C118.391 28.4398 117.041 18.0098 110.551 9.98982C105.231 3.41982 97.1812 -0.120182 88.9612 0.519818C81.9512 1.06982 75.2212 3.86982 70.5112 8.20982C64.7212 13.5498 60.8512 21.2598 58.6812 31.7798C56.7812 40.9598 55.2412 49.6498 54.0912 57.6098C53.8112 59.5498 53.5112 61.4998 53.2012 63.4398C52.0012 71.1098 48.7612 81.7298 55.1412 88.0898C58.8912 91.8298 66.8612 92.6798 71.2712 89.7398C73.7612 88.0798 74.7212 85.1198 74.9612 82.2598C75.3412 77.6398 75.4212 72.9598 75.6912 68.3298C75.7012 68.0698 75.6212 67.8198 75.4612 67.6198C72.9312 64.3798 71.2812 60.7498 70.7112 57.1098C70.6712 56.8398 70.5212 56.5898 70.2912 56.4298C70.0712 56.2698 69.7912 56.1998 69.5112 56.2398L69.4412 56.2498C64.9612 56.7898 60.5912 51.9198 59.9812 47.5298C59.6612 45.2298 59.9812 42.0798 61.4512 40.6098C62.1412 39.9198 63.0212 39.6598 64.1612 39.8198C66.2712 40.1098 67.8112 42.7098 68.9712 44.6598C69.1012 44.8798 69.3112 45.0498 69.5612 45.1198L69.7712 45.1798C70.2212 45.3198 70.7112 45.1398 70.9612 44.7298C72.7312 41.8798 74.2412 38.5198 75.4612 34.7398C78.2912 34.6798 80.8112 32.7998 82.8512 29.2398C83.7312 30.2398 85.2112 30.7598 86.6512 30.4798C90.4512 29.7398 92.3212 25.8098 93.3212 23.6998C93.6812 22.9298 94.0212 22.1498 94.3412 21.3498C94.5412 23.3998 95.5612 26.9998 98.2312 28.1098C99.7812 28.7498 101.251 28.7298 102.601 28.0598C106.151 26.2898 107.861 20.4798 108.901 16.5098C111.231 21.1298 112.201 26.6298 111.781 32.8998C111.691 34.3298 111.601 35.7598 111.511 37.1998C111.191 42.2298 110.871 47.4198 110.321 52.4998C110.231 53.3498 110.151 54.2198 110.061 55.0998C109.551 60.5198 109.031 66.1298 105.871 70.2398C105.841 70.2798 105.811 70.3298 105.781 70.3698L105.151 71.5198C104.941 71.8998 104.991 72.3698 105.271 72.6998C105.551 73.0298 106.011 73.1498 106.411 72.9998C106.541 72.9498 106.661 72.9398 106.791 72.9698C107.131 73.0398 107.421 73.6598 107.561 74.6298C107.631 75.1398 108.071 75.5198 108.591 75.5198C109.111 75.5198 109.541 75.1398 109.621 74.6298L109.741 73.8298C110.281 73.1798 111.041 72.8598 111.471 72.9298C111.571 72.9498 111.891 72.9998 112.081 73.7098C112.281 74.4198 112.291 75.1098 112.301 75.8698C112.301 76.2398 112.871 76.7398 112.761 77.0398C113.011 76.3598 113.301 75.6798 113.801 75.1598C114.291 74.6998 115.021 74.3898 115.691 74.5498Z"
        fill="#42B2FC" />
    <path
        d="M108.771 14.1396C112.261 19.7996 113.261 26.4596 112.831 32.9796C112.401 39.5296 112.071 46.0896 111.361 52.6196C110.701 58.6796 110.581 65.8296 106.711 70.8896"
        stroke="#1A2833" stroke-width="1.9297" stroke-miterlimit="10" stroke-linecap="round"
        stroke-linejoin="round" />
    <path
        d="M69.6797 57.2798C70.6697 63.5298 74.4997 69.1298 79.3697 73.0498C84.3497 77.0598 92.3097 80.7898 98.7397 78.6298"
        stroke="#1A2833" stroke-width="1.9297" stroke-miterlimit="10" stroke-linecap="round"
        stroke-linejoin="round" />
    <path
        d="M69.5713 57.2996C64.3213 57.9296 59.6213 52.4896 58.9513 47.6896C58.4413 44.0196 59.3813 38.1196 64.3113 38.7996C66.9513 39.1596 68.6513 42.0696 69.8813 44.1396"
        stroke="#1A2833" stroke-width="1.9297" stroke-miterlimit="10" stroke-linecap="round"
        stroke-linejoin="round" />
    <path
        d="M85.6431 15.3398C85.1431 19.3698 84.6031 23.1598 82.8631 26.9498C81.4231 30.0898 78.8731 33.9698 74.9531 33.7098"
        stroke="#1A2833" stroke-width="1.9297" stroke-miterlimit="10" stroke-linecap="round"
        stroke-linejoin="round" />
    <path
        d="M96.5414 11.7197C95.2814 15.5597 94.1214 19.6197 92.3814 23.2697C91.1614 25.8397 89.5114 28.8797 86.4514 29.4797C85.1514 29.7297 83.6314 29.0897 83.1914 27.8397"
        stroke="#1A2833" stroke-width="1.9297" stroke-miterlimit="10" stroke-linecap="round"
        stroke-linejoin="round" />
    <path
        d="M96.3115 12.4297C95.8615 15.3097 95.1315 18.2297 95.3715 21.1697C95.5415 23.2397 96.5315 26.2997 98.6315 27.1697C105.031 29.8297 107.391 18.0097 108.431 14.2197"
        stroke="#1A2833" stroke-width="1.9297" stroke-miterlimit="10" stroke-linecap="round"
        stroke-linejoin="round" />
    <path
        d="M89.8711 53.5198L95.3311 55.5898C94.5011 48.2298 92.0611 39.0798 96.8611 32.5998C99.5811 28.9298 104.021 26.8098 108.601 27.5098"
        stroke="#1A2833" stroke-width="1.9297" stroke-miterlimit="10" stroke-linecap="round"
        stroke-linejoin="round" />
    <path d="M87.4609 64.1797C90.1809 66.2797 93.8709 66.7697 97.1309 65.7497" stroke="#1A2833"
        stroke-width="1.9297" stroke-miterlimit="10" stroke-linecap="round" stroke-linejoin="round" />
    <path
        d="M103.43 75.4199C103.98 74.0899 105.25 71.6099 107.01 71.9699C109.75 72.5299 108.44 80.1799 108.18 82.0599C107.29 88.4899 106.2 94.9499 105.4 101.38"
        stroke="#1A2833" stroke-width="1.9297" stroke-miterlimit="10" stroke-linecap="round"
        stroke-linejoin="round" />
    <path
        d="M108.762 73.4399C109.912 71.8199 112.422 71.0099 113.102 73.4699C113.672 75.5299 113.092 77.8699 112.972 79.9299C112.822 82.5699 112.362 85.2299 112.022 87.8599C111.392 92.7099 110.872 97.6399 110.112 102.47"
        stroke="#1A2833" stroke-width="1.9297" stroke-miterlimit="10" stroke-linecap="round"
        stroke-linejoin="round" />
    <path
        d="M116.832 79.8398C116.352 85.5598 115.952 91.3198 115.162 97.0098C114.462 102 113.912 107.21 112.742 112.15"
        stroke="#1A2833" stroke-width="1.9297" stroke-miterlimit="10" stroke-linecap="round"
        stroke-linejoin="round" />
    <path
        d="M107.451 115.93C109.611 114.39 112.291 113.14 114.261 111.4C115.781 110.07 117.031 107.85 117.961 106.06C119.121 103.84 120.331 100.37 123.141 99.7897C126.021 99.1897 125.721 102.25 125.051 103.96C121.161 113.86 116.391 125.49 106.961 131.31"
        stroke="#1A2833" stroke-width="1.9297" stroke-miterlimit="10" stroke-linecap="round"
        stroke-linejoin="round" />
    <path
        d="M47.7812 167.96C57.4412 156.65 67.7512 146.36 77.1012 134.71C81.7012 128.98 86.3812 123.49 89.3512 116.67C91.9512 110.7 93.1912 103.71 94.8112 97.3896C95.7812 93.5996 96.7113 89.8096 97.5713 85.9896C98.1413 83.4896 98.5613 80.9696 99.3713 78.5196C99.7313 77.4396 100.161 75.7796 101.091 75.0196C102.871 73.5896 103.951 75.7296 103.921 77.3996C103.831 81.7796 102.881 86.0796 102.081 90.3696C101.321 94.4696 100.821 98.5996 99.9613 102.73C102.561 110.31 102.471 118.84 99.9613 126.45"
        stroke="#1A2833" stroke-width="1.9297" stroke-miterlimit="10" stroke-linecap="round"
        stroke-linejoin="round" />
    <path
        d="M125.281 95.8599C135.691 96.3899 145.391 100.34 152.841 107.63C164.311 118.86 165.581 138.45 168.751 153.27"
        stroke="#1A2833" stroke-width="1.9297" stroke-miterlimit="10" stroke-linecap="round"
        stroke-linejoin="round" />
    <path
        d="M13.4297 170.42C14.0897 159.57 16.0097 149 17.4597 138.26C18.7197 128.96 20.2997 119.56 25.9997 111.8C29.4297 107.13 33.8797 103.07 39.1497 100.58C49.5797 95.6399 61.6797 96.0599 72.8797 94.6899"
        stroke="#1A2833" stroke-width="1.9297" stroke-miterlimit="10" stroke-linecap="round"
        stroke-linejoin="round" />
    <path d="M82.0271 146.395L81 143.396L78.0009 144.423L79.0279 147.422L82.0271 146.395Z"
        fill="#1A2833" stroke="#1A2833" stroke-width="1.9297" stroke-miterlimit="10"
        stroke-linecap="round" stroke-linejoin="round" />
    <path d="M74.8105 141.841L74.5078 138.686L71.3524 138.988L71.6551 142.144L74.8105 141.841Z"
        fill="#1A2833" stroke="#1A2833" stroke-width="1.9297" stroke-miterlimit="10"
        stroke-linecap="round" stroke-linejoin="round" />
    <path d="M88.5349 150.041L87.5078 147.042L84.5087 148.069L85.5358 151.068L88.5349 150.041Z"
        fill="#1A2833" stroke="#1A2833" stroke-width="1.9297" stroke-miterlimit="10"
        stroke-linecap="round" stroke-linejoin="round" />
    <path d="M94.9097 152.86L93.6328 149.958L90.7313 151.235L92.0082 154.136L94.9097 152.86Z"
        fill="#1A2833" stroke="#1A2833" stroke-width="1.9297" stroke-miterlimit="10"
        stroke-linecap="round" stroke-linejoin="round" />
    <path
        d="M136.582 98.0298C134.892 104.36 133.712 111.99 134.202 118.53C134.672 124.81 136.752 129.64 139.302 135.28C144.022 145.7 143.852 158.69 139.522 169.27"
        stroke="#1A2833" stroke-width="1.9297" stroke-miterlimit="10" stroke-linecap="round"
        stroke-linejoin="round" />
    <path
        d="M67.7884 55.5901C68.8323 55.5901 69.6784 54.7439 69.6784 53.7001C69.6784 52.6562 68.8323 51.8101 67.7884 51.8101C66.7446 51.8101 65.8984 52.6562 65.8984 53.7001C65.8984 54.7439 66.7446 55.5901 67.7884 55.5901Z"
        fill="#1A2833" />
    <path d="M35.0703 24.8999C36.9803 33.3499 43.5703 39.1899 51.2203 42.5499" stroke="#1A2833"
        stroke-width="1.9297" stroke-miterlimit="10" stroke-linecap="round" stroke-linejoin="round" />
    <path
        d="M82.7088 35.8998C80.9188 36.7098 81.7688 41.5098 82.5488 42.6898C82.7788 43.0498 83.1088 43.3798 83.4988 43.3798C85.2388 43.4198 85.6088 34.5998 82.7088 35.8998Z"
        fill="#1A2833" />
    <path
        d="M102.9 35.8998C101.11 36.7098 101.96 41.5098 102.74 42.6898C102.97 43.0498 103.3 43.3798 103.69 43.3798C105.42 43.4198 105.79 34.5998 102.9 35.8998Z"
        fill="#1A2833" />
    <script xmlns="" />
</svg>