<svg xmlns="http://www.w3.org/2000/svg" width="189" height="160" viewBox="0 0 189 160" fill="none">
    <script xmlns="" />
    <g clip-path="url(#clip0_1752_29180)">
        <path d="M128.263 15.9393L134.515 6.33105L145.7 6.38908L150.226 18.1442L135.256 23.3449"
            fill="white" />
        <path
            d="M148.006 14.5146C160.668 22.9775 164.588 40.3782 154.554 38.2979C154.554 38.2979 170.953 65.8377 169.853 72.7812C168.75 79.7268 141.746 84.229 141.746 84.229L130.624 40.6876L123.732 29.9919L127.358 17.0204"
            fill="white" />
        <path
            d="M148.006 14.5146C160.668 22.9775 164.588 40.3782 154.554 38.2979C154.554 38.2979 170.953 65.8377 169.853 72.7812C168.75 79.7268 141.746 84.229 141.746 84.229L130.624 40.6876L123.732 29.9919L127.358 17.0204"
            stroke="#1A2833" stroke-width="1.07451" stroke-linecap="round" stroke-linejoin="round" />
        <path
            d="M155.531 12.6022C158.748 13.6381 161.589 10.8701 161.589 10.8701C161.589 10.8701 161.062 14.4099 164.5 16.0002C167.938 17.5905 168.07 11.9424 167.422 9.08212C166.429 4.69893 162.253 4.80771 156.251 6.31418"
            fill="white" />
        <path
            d="M155.531 12.6022C158.748 13.6381 161.589 10.8701 161.589 10.8701C161.589 10.8701 161.062 14.4099 164.5 16.0002C167.938 17.5905 168.07 11.9424 167.422 9.08212C166.429 4.69893 162.253 4.80771 156.251 6.31418"
            stroke="#1A2833" stroke-width="1.9" stroke-linecap="round" stroke-linejoin="round" />
        <path
            d="M146.622 5.58085C153.125 1.29355 159.299 4.66178 157 13C154.701 21.3404 155.414 26.7982 152.865 26.8068C150.316 26.8154 147.385 20.2544 149.504 15.6555C151.623 11.0566 151 10.4999 151 10.4999L147.617 12.5824"
            fill="white" />
        <path
            d="M146.622 5.58085C153.125 1.29355 159.299 4.66178 157 13C154.701 21.3404 155.414 26.7982 152.865 26.8068C150.316 26.8154 147.385 20.2544 149.504 15.6555C151.623 11.0566 151 10.4999 151 10.4999L147.617 12.5824"
            stroke="#1A2833" stroke-width="1.9" stroke-linecap="round" stroke-linejoin="round" />
        <path
            d="M128.817 13.0018C131.716 7.47018 134.128 2.67785 138.015 4.98806C141.903 7.29826 141.329 0.296733 146.622 5.58119C151.915 10.8656 151.462 9.58052 151.803 26.8222C151.932 33.2907 140.222 37.8123 143.197 14.8156C143.366 13.5068 143.063 13.913 141.153 9.32479"
            fill="white" />
        <path
            d="M128.817 13.0018C131.716 7.47018 134.128 2.67785 138.015 4.98806C141.903 7.29826 141.329 0.296733 146.622 5.58119C151.915 10.8656 151.462 9.58052 151.803 26.8222C151.932 33.2907 140.222 37.8123 143.197 14.8156C143.366 13.5068 143.063 13.913 141.153 9.32479"
            stroke="#1A2833" stroke-width="1.9" stroke-linecap="round" stroke-linejoin="round" />
        <path
            d="M132.199 14.5316C127.132 14.2501 130.267 6.37899 122 2.5C113.733 -1.37899 108.038 3.02788 110.185 5.65184C112.332 8.2758 120.034 8.34887 119.883 12.7651C119.733 17.1814 113.615 22.0489 121.527 31.7324C129.442 41.4138 134.737 42.5334 134.737 42.5334"
            fill="white" />
        <path
            d="M132.199 14.5316C127.132 14.2501 130.267 6.37899 122 2.5C113.733 -1.37899 108.038 3.02788 110.185 5.65184C112.332 8.2758 120.034 8.34887 119.883 12.7651C119.733 17.1814 113.615 22.0489 121.527 31.7324C129.442 41.4138 134.737 42.5334 134.737 42.5334"
            stroke="#1A2833" stroke-width="1.9" stroke-linecap="round" stroke-linejoin="round" />
        <path
            d="M71.573 122.86L120.663 124.996L133.48 145.627C133.48 145.627 110.664 177.574 120.837 214.385C131.011 251.196 44.9874 258.554 31.3561 226.931C-7.46602 178.058 -13.4468 117.952 34.8719 105.187"
            fill="#DAE0E5" />
        <path
            d="M140.785 47.2399C140.785 47.2399 136.839 46.9455 126.758 49.9348C116.677 52.9241 121.336 103.491 121.336 103.491C121.336 103.491 103.978 102.603 85.9696 102.298C62.5817 101.903 36.1187 111.547 36.1187 111.547L65.4249 146.564C65.4249 146.564 120.599 167.568 148.285 162.726C175.971 157.885 198.924 143.159 183.669 93.9447C170.684 52.0516 161.639 34.2705 147.685 39.6839"
            fill="#DAE0E5" />
        <path
            d="M96.5919 23.0717C104.146 9.50278 123.459 16.4506 131.653 28.9343C151.508 8.11881 172.74 27.3569 168.23 42.5118C163.719 57.6667 146.628 67.2729 129.571 71.9449C122.148 61.3007 83.5645 46.4768 96.5919 23.0717Z"
            fill="#42B2FC" />
        <path
            d="M156.814 33.258C148.104 35.9765 141.066 38.8884 136.846 41.4565C131.385 44.7789 126.202 38.3856 134.121 34.3325C147.975 27.2386 156.129 24.5931 159.03 27.9757C161.433 30.7737 158.951 32.5918 156.814 33.258Z"
            fill="white" stroke="#42B2FC" stroke-width="1.07451" stroke-linecap="round"
            stroke-linejoin="round" />
        <path
            d="M135.552 25.3605C136.079 26.6435 137.063 28.0876 138.15 29.8907C145.326 41.7941 145.234 47.6459 149.992 46.4468C155.332 45.0993 152.022 36.3399 143.813 25.1886C143.813 25.1886 141.78 23.6628 139.708 22.584"
            fill="white" />
        <path
            d="M135.552 25.3605C136.079 26.6435 137.063 28.0876 138.15 29.8907C145.326 41.7941 145.234 47.6459 149.992 46.4468C155.332 45.0993 152.022 36.3399 143.813 25.1886C143.813 25.1886 141.78 23.6628 139.708 22.584"
            stroke="#42B2FC" stroke-width="1.07451" stroke-linecap="round" stroke-linejoin="round" />
        <path
            d="M139.706 22.5862C156.774 13.2423 172.133 29.403 168.232 42.512C163.721 57.6669 146.63 67.2731 129.573 71.9451C122.151 61.2988 83.565 46.4748 96.5945 23.0698C104.148 9.50083 123.462 16.4486 131.656 28.9323C132.952 27.5741 134.254 26.3879 135.554 25.3585C135.552 25.3606 138.124 23.3835 139.706 22.5862Z"
            stroke="#42B2FC" stroke-width="1.07451" stroke-linecap="round" stroke-linejoin="round" />
        <path
            d="M126.487 77.8716L158.963 60.7847L162.049 70.9195L156.55 79.3931L155 82C155 82 159.945 74.7005 162.049 77C161.22 74.7951 160.11 72.4362 163 76.5C164.582 78.7242 160.632 83.2986 158 87C153.398 93.4723 142.893 93.8001 141.758 99.2372C139.315 110.952 139.751 118.557 139.751 118.557L112.546 115.731C112.546 115.731 115.456 100.12 116.589 85.3007"
            fill="white" />
        <path
            d="M126.487 77.8716L158.963 60.7847L162.049 70.9195L156.55 79.3931L155 82C155 82 159.945 74.7005 162.049 77C161.22 74.7951 160.11 72.4362 163 76.5C164.582 78.7242 160.632 83.2986 158 87C153.398 93.4723 142.893 93.8001 141.758 99.2372C139.315 110.952 139.751 118.557 139.751 118.557L112.546 115.731C112.546 115.731 115.456 100.12 116.589 85.3007"
            stroke="#1A2833" stroke-width="1.9" stroke-linecap="round" stroke-linejoin="round" />
        <path d="M152.256 83.3499C163.818 78.089 164.944 74.3927 163.981 65.3066L152.256 83.3499Z"
            fill="white" />
        <path d="M152.256 83.3499C163.818 78.089 164.944 74.3927 163.981 65.3066" stroke="#1A2833"
            stroke-width="1.9" stroke-linecap="round" stroke-linejoin="round" />
        <path
            d="M150.296 76.7224C159.6 72.8154 170.115 63.2179 168.716 56.2937C167.317 49.3696 150.61 65.5281 150.61 65.5281"
            fill="white" />
        <path
            d="M150.296 76.7224C159.6 72.8154 170.115 63.2179 168.716 56.2937C167.317 49.3696 150.61 65.5281 150.61 65.5281"
            stroke="#1A2833" stroke-width="1.9" stroke-linecap="round" stroke-linejoin="round" />
        <path
            d="M116.589 85.3012C117.455 70.9178 115.058 70.2409 115.129 66.2996C115.258 59.1046 108.459 54.048 111.362 52.1117C115.024 49.6704 123.394 53.3753 122.148 66.0868C126.5 68.5 125.5 71.9472 129.571 71.9472C156.139 56.7622 168.75 46.5479 171.999 49.8789C174.87 52.8252 163.023 62.8998 148.938 70.1979"
            fill="white" />
        <path
            d="M116.589 85.3012C117.455 70.9178 115.058 70.2409 115.129 66.2996C115.258 59.1046 108.459 54.048 111.362 52.1117C115.024 49.6704 123.394 53.3753 122.148 66.0868C126.5 68.5 125.5 71.9472 129.571 71.9472C156.139 56.7622 168.75 46.5479 171.999 49.8789C174.87 52.8252 163.023 62.8998 148.938 70.1979"
            stroke="#1A2833" stroke-width="1.9" stroke-linecap="round" stroke-linejoin="round" />
        <path
            d="M101.911 204.052C57.2629 219.927 -0.0816889 156.397 12.4278 127.476C23.3857 102.141 49.4147 105.515 49.4147 105.515C49.4147 105.515 42.3207 115.729 46.0342 116.604C67.1226 121.581 91.0327 154.861 91.0327 154.861C91.0327 154.861 106.261 103.366 110.6 100.383C114.938 97.4 143.095 98.8484 146.377 104.088C152.293 113.533 144.571 188.884 101.911 204.052Z"
            fill="#DAE0E5" stroke="#DAE0E5" stroke-width="0.85961" stroke-linecap="round"
            stroke-linejoin="round" />
        <path
            d="M120.973 97.9954C130.854 97.9159 144.182 100.583 146.376 104.088C152.293 113.533 144.571 188.884 101.911 204.052C79.1957 212.128 53.1925 199.651 34.7754 181.635"
            stroke="#1A2833" stroke-width="1.9" stroke-linecap="round" stroke-linejoin="round" />
        <path
            d="M61.3696 129.137C77.0897 142.757 91.0348 154.863 91.0348 154.863C91.0348 154.863 105.758 102.259 110.097 99.2739"
            stroke="#1A2833" stroke-width="1.9" stroke-linecap="round" stroke-linejoin="round" />
        <path
            d="M49.0945 84.1533C49.0945 84.1533 44.7878 79.7306 40.2147 80.2013C35.6416 80.6698 30.1809 77.3818 23.3234 70.2728C15.1356 61.7863 10.5388 60.08 17.7187 57.4367C7.44853 46.2166 20.8821 37.8204 37.3565 40.1907C49.1697 41.8906 51.6626 36.1291 54.1318 31.5302C58.1054 24.1268 67.4902 26.2865 63.6993 34.6097C66.9207 32.4542 70.1614 26.4628 74.9236 27.9606C80.5734 29.6906 84.2912 49.395 64.2365 54.2776"
            fill="#1A2833" />
        <path
            d="M49.0945 84.1533C49.0945 84.1533 44.7878 79.7306 40.2147 80.2013C35.6416 80.6698 30.1809 77.3818 23.3234 70.2728C15.1356 61.7863 10.5388 60.08 17.7187 57.4367C7.44853 46.2166 20.8821 37.8204 37.3565 40.1907C49.1697 41.8906 51.6626 36.1291 54.1318 31.5302C58.1054 24.1268 67.4902 26.2865 63.6993 34.6097C66.9207 32.4542 70.1614 26.4628 74.9236 27.9606C80.5734 29.6906 84.2912 49.395 64.2365 54.2776"
            stroke="#1A2833" stroke-width="0.85961" stroke-linecap="round" stroke-linejoin="round" />
        <path
            d="M36.1494 70.6919C36.1494 70.6919 37.9438 71.2979 39.6523 72.2113C37.9009 71.7686 36.1494 70.6919 36.1494 70.6919Z"
            fill="white" stroke="#1A2833" stroke-width="0.85961" stroke-linecap="round"
            stroke-linejoin="round" />
        <path
            d="M37.2989 82.7562C37.2559 88.5994 37.2667 104.07 38.541 105.605C40.1163 107.5 44.5648 112.219 53.8507 112.348C59.191 112.432 64.8859 110.902 66.3322 106.604C67.0049 104.605 68.0794 87.8086 68.2191 82.8529C71.6317 82.3801 75.1927 82.9002 78.313 81.1896C85.306 77.3557 74.7371 58.2917 59.1695 47.8818C51.9338 58.8118 35.7989 46.4055 30.0373 51.8167C27.2715 54.4149 29.1412 57.5954 31.677 59.334C38.2789 63.8577 43.7546 67.0125 43.0819 70.7023C42.7553 72.4989 41.2037 72.6042 39.6499 72.211C41.5002 73.2017 43.2496 74.5512 42.5081 75.8836C41.2359 78.1702 36.0847 75.6709 36.998 74.5878C22.0688 72.9739 27.3833 82.6187 37.2989 82.7562Z"
            fill="white" stroke="#1A2833" stroke-width="1.9" stroke-linecap="round"
            stroke-linejoin="round" />
        <path
            d="M65.945 52.9087C60.7529 49.5132 54.4068 53.6931 58.9499 59.9854C62.9363 65.5106 66.5875 68.0271 66.5875 68.0271L60.351 68.3086"
            stroke="#1A2833" stroke-width="1.9" stroke-linecap="round" stroke-linejoin="round" />
        <path d="M43.4106 62.1239C43.5159 57.2199 47.122 52.4189 53.0727 56.5666" stroke="#1A2833"
            stroke-width="1.9" stroke-linecap="round" stroke-linejoin="round" />
        <path
            d="M52.2881 62.5321C51.3726 60.9891 52.1613 59.8049 53.2702 61.8573C54.2523 63.6796 53.2036 64.0751 52.2881 62.5321Z"
            fill="#1A2833" stroke="#1A2833" stroke-width="1.07451" stroke-linecap="round"
            stroke-linejoin="round" />
        <path
            d="M64.2256 59.6737C63.3101 58.1307 64.0988 56.9465 65.2077 58.9989C66.1898 60.8212 65.1411 61.2167 64.2256 59.6737Z"
            fill="#1A2833" stroke="#1A2833" stroke-width="1.07451" stroke-linecap="round"
            stroke-linejoin="round" />
        <path d="M55.3994 70.645C55.3994 70.645 58.0749 72.822 60.2197 71.8678" stroke="#1A2833"
            stroke-width="1.9" stroke-linecap="round" stroke-linejoin="round" />
        <path
            d="M37.5287 98.4619C37.5287 98.4619 34.1805 99.5214 34.8725 105.186C37.0323 112.626 60.1515 119.316 59.7904 117.709C59.4294 116.101 61.37 105.408 61.37 105.408C43.6878 108.328 37.5287 98.4619 37.5287 98.4619Z"
            fill="white" stroke="#1A2833" stroke-width="1.9" stroke-linecap="round"
            stroke-linejoin="round" />
        <path
            d="M69.9512 114.107L61.3701 105.409C61.3701 105.409 65.4275 104.152 67.6023 100.114C74.8617 109.983 69.9512 114.107 69.9512 114.107Z"
            fill="white" stroke="#1A2833" stroke-width="1.9" stroke-linecap="round"
            stroke-linejoin="round" />
        <path
            d="M134.506 12.9286C135.765 18.6429 139.76 22.9366 139.76 22.9366C139.76 22.9366 142.666 39.6174 148.167 39.987C155.066 40.449 150.312 23.908 141.155 9.32471"
            fill="white" />
        <path
            d="M134.506 12.9286C135.765 18.6429 139.76 22.9366 139.76 22.9366C139.76 22.9366 142.666 39.6174 148.167 39.987C155.066 40.449 150.312 23.908 141.155 9.32471"
            stroke="#1A2833" stroke-width="1.9" stroke-linecap="round" stroke-linejoin="round" />
        <path d="M87.9051 17.7651C88.5014 14.9902 91.374 9.69932 98.0947 10.735" stroke="#1A2833"
            stroke-width="1.9" stroke-linecap="round" />
        <path d="M7.5 112.5C8.09625 109.725 15.5006 104 21.0001 104" stroke="#1A2833"
            stroke-width="1.9" stroke-linecap="round" />
    </g>
    <defs>
        <clipPath id="clip0_1752_29180">
            <rect width="188.547" height="252.141" fill="white" />
        </clipPath>
    </defs>
    <script xmlns="" />
</svg>