<svg xmlns="http://www.w3.org/2000/svg" viewBox="0 0 208 160" fill="none">
    <script xmlns="" />
    <g clip-path="url(#clip0)">
        <path
            d="M147.861 159.466c-.383-7.726-.132-27.048-4.252-33.813-3.552-5.844-9.455-9.859-15.714-12.36a1485.788 1485.788 0 01-21.431-8.765l6.602 12.911-18.42-13.28-2.866 1.316c-3.34 6.95-7.038 13.649-10.18 20.612l-34.095-27.39.317.592a627.808 627.808 0 01-26.41 15.492c7.012 6.923 13.39 16.913 15.674 26.587a60.853 60.853 0 011.466 18.098"
            fill="#43A7F5" />
        <path
            d="M104.14 15.026c4.978 2.633 6.206 9.069 6.801 14.268.224 1.882-.476 3.856-.172 5.712a15.677 15.677 0 002.126 4.804c2.43 4.186 4.754 8.213 7.474 12.228 0 0-5.731 1.053-6.84 1.316-.674.171-.264 13.741-.291 15.136-.079 3.422.132 7.99-2.72 10.254-5.599 4.448-15.753 1.184-22.091-.277-7.633-1.75-12.994-4.83-15.16-12.872"
            stroke="#1D1D1B" stroke-width="1.974" stroke-linecap="round" stroke-linejoin="round" />
        <path
            d="M65.291 69.464c-3.42-4.79-8.477-10.069-11.382-15.188a28.578 28.578 0 01-3.552-15.282c.396-4.646 2.64-9.213 4.833-13.162a29.24 29.24 0 016.681-8.292 38.355 38.355 0 0119.226-8.45c10.934-1.671 26.264-.302 32.048 10.727a9.586 9.586 0 010 8.872 9.237 9.237 0 01-2.033 2.487c-.093-4.304-.515-9.66-3.368-13.043a23.288 23.288 0 00-4.133-2.79c-.845 4.5-4.502 8.7-7.738 11.845a47.327 47.327 0 01-11.726 8.24c-.316 4.014-.924 7.673-1.24 11.687l-8.2.08-4.504 12.582s-3.472 6.581-4.912 9.687z"
            fill="#1D1D1B" />
        <path
            d="M104.351 35.125c-2.007.75-1.439 6.028-.686 7.383a1.411 1.411 0 00.99.83c1.902.17 2.958-9.411-.304-8.213z"
            fill="#1D1D1B" />
        <path
            d="M102.464 63.252a22.713 22.713 0 0010.564 1.46M145.695 15.776c2.641 0 5.731.316 8.306.316 4.186 11.385 12.875 20.06 24.653 23.086"
            stroke="#1D1D1B" stroke-width="1.974" stroke-linecap="round" stroke-linejoin="round" />
        <path
            d="M134.656 39.283c-4.12-4.475-3.209-10.767-.542-15.794a47.613 47.613 0 014.345-6.49 23.24 23.24 0 0115.344-8.765c9.903-1.659 20.995-1.5 29.71 3.935"
            stroke="#1D1D1B" stroke-width="1.974" stroke-linecap="round" stroke-linejoin="round" />
        <path
            d="M145.695 15.776a48.383 48.383 0 00-8.49 9.846c-2.285 3.948-2.641 8.594-2.43 13.03.422 13.675 1.188 27.285 2.179 40.947"
            stroke="#1D1D1B" stroke-width="1.974" stroke-linecap="round" stroke-linejoin="round" />
        <path
            d="M136.333 27.372c5.506-.921 11.805 2.724 11.884 8.976a59.013 59.013 0 01-2.086 15.795c2.641-.658 5.282-1.093 7.923-1.75"
            stroke="#1D1D1B" stroke-width="1.974" stroke-linecap="round" stroke-linejoin="round" />
        <path
            d="M140.94 35.388c-2.02.75-1.452 6.028-.686 7.384a1.411 1.411 0 00.99.829c1.888.171 2.945-9.41-.304-8.213zM160.115 35.388c-2.007.75-1.439 6.028-.687 7.384a1.414 1.414 0 00.991.829c1.967.171 2.958-9.41-.304-8.213z"
            fill="#1D1D1B" />
        <path
            d="M141.391 63.502c5.149 2.856 12.161 2.132 16.928-1.092M136.954 79.6l47.035-18.309M115.826 99.869l68.163-26.535M177.665 127.456c-2.285 1.803-4.345-1.461-2.377-3.711 1.967-2.251 4.622 1.474 2.72 3.395-.105.116-.22.221-.343.316v0zM94.645 104.16l5.032-23.31M155.269 111.307l29.169-11.36"
            stroke="#1D1D1B" stroke-width="1.974" stroke-linecap="round" stroke-linejoin="round" />
        <path
            d="M141.391 135.327h43.047V1.297M46.447 26.306c2.813.619 5.6 1.316 8.372 2.146M46.447 32.031l8.359-.474"
            stroke="#1D1D1B" stroke-width="1.974" stroke-linecap="round" stroke-linejoin="round" />
        <path
            d="M39.105 100.908v81.131M57.817 100.908v81.131M76.397 102.87V184M95.107 102.87V184M113.448 101.896v81.131M132.16 101.896v81.131M27.617 135.287h125.485M20.17 116.624h118.843"
            stroke="#fff" stroke-width="1.974" stroke-linecap="round" stroke-linejoin="round" />
        <path
            d="M21.49 114.781c7.012 6.923 13.39 16.913 15.674 26.587a60.856 60.856 0 011.466 18.098"
            stroke="#1D1D1B" stroke-width="1.974" stroke-linecap="round" stroke-linejoin="round" />
        <path
            d="M58.399 84.548L47.505 98.697l34.095 27.39c3.142-6.963 6.84-13.662 10.18-20.599L58.4 84.548z"
            fill="#43A7F5" />
        <path
            d="M113.013 117.493l-18.368-13.334M106.45 104.58l6.563 12.912M91.557 104.962c5.374-1.158 6.298 5.094 6.483 8.99.66 13.017.792 45.514.792 45.514"
            stroke="#1D1D1B" stroke-width="1.974" stroke-linecap="round" stroke-linejoin="round" />
        <path
            d="M94.223 115.702c-.542 1.066-1.968 1.803-2.998.408a1.758 1.758 0 01.926-2.597 1.772 1.772 0 011.042-.035 1.465 1.465 0 011.252 1.54 1.458 1.458 0 01-.222.684zM94.224 145.08c-.542 1.066-1.968 1.803-2.998.395a1.746 1.746 0 01.917-2.613 1.76 1.76 0 011.05-.019 1.466 1.466 0 011.26 1.55 1.455 1.455 0 01-.23.687zM31.738 83.535l21.722-8.45M39.014 69.266l14.776-5.751"
            stroke="#1D1D1B" stroke-width="1.974" stroke-linecap="round" stroke-linejoin="round" />
        <path
            d="M73.241 59.975c-6.972.25-14.525-6.752-13.442-13.886a6.969 6.969 0 012.014-3.747 7.007 7.007 0 013.822-1.886c5.506-1.093 7.725 2.632 10.564 6.396 2.152 0 3.631.106 5.77.158"
            fill="#fff" />
        <path
            d="M73.241 59.975c-6.972.25-14.525-6.752-13.442-13.886a6.969 6.969 0 012.014-3.747 7.007 7.007 0 013.822-1.886c5.506-1.093 7.725 2.632 10.564 6.396 2.152 0 3.631.106 5.77.158M47.505 98.697l34.095 27.39c3.142-6.963 6.602-14.202 9.956-21.059M46.447 147.291l22.052-2.632M70.81 159.466l-2.31-14.807"
            stroke="#1D1D1B" stroke-width="1.974" stroke-linecap="round" stroke-linejoin="round" />
    </g>
    <defs>
        <clipPath id="clip0">
            <path fill="#fff" d="M0 0h208v160H0z" />
        </clipPath>
    </defs>
    <script xmlns="" />
</svg>