<svg xmlns="http://www.w3.org/2000/svg" viewBox="0 0 209 160" fill="none">
    <script xmlns="" />
    <g clip-path="url(#clip0)">
        <path
            d="M92.973 133.733h78.78c-.494 2.201-1.3 5.548-2.067 9.149h-72.06M91.672 115l83.382-1.454c-.117-8.826-3.393-18.026-11.271-22.506-7.293-4.147-15.977-5.12-24.115-6.054l-3.77-.426c-3.37 6.02-8.119 11.109-13.835 14.826a40.989 40.989 0 01-18.977 6.507 48.633 48.633 0 01-11.401 0"
            fill="#43A7F5" />
        <path
            d="M90.567 64.561l2.6 21.334h-.325c-1.456 0-2.912.08-4.355 0-.273-.614-.338-1.334-.585-1.92a1.79 1.79 0 00-.539-.834 1.721 1.721 0 00-.891-.406c-.32.052-.625.173-.896.354-.271.182-.502.42-.677.7a1.718 1.718 0 00-.421-1.116 1.638 1.638 0 00-1.035-.552c-.676-.093-.936.374-1.495.574-.56.2-.494 0-1.3 0a4.27 4.27 0 00-2.6.653 7.505 7.505 0 00-1.638 1.827c-2.405 3.333-2.665 7.16-3.432 11.16-2.184 11.733-3.9 23.026-6.708 34.666-.091.387-.195.774-.286 1.16h-.156c-1.768 4.894-14.807 29.881-21.97 20.147-1.755-2.386-1.482-6.066-1.183-8.84.702-6.533 23.114-89.693 27.69-112.48 1.443-7.16 2.327-14.4 6.799-20.4a27.577 27.577 0 019.518-7.896A26.868 26.868 0 0198.6-.172c7.644.173 15.691.973 22.347 5.16a30.582 30.582 0 018.791 8.521 31.433 31.433 0 014.833 11.372c1.469 6.934.455 14.214-1.508 20.947-2.288 7.84-9.893 17.827-16.419 24.52a1.793 1.793 0 01-1.982.383 1.846 1.846 0 01-.813-.685 1.91 1.91 0 01-.312-1.031c.52-14.827.962-29.827 2.132-44.56A684.643 684.643 0 0196.079 2.72c-6.37 5.08-12.35 10.16-18.291 15.774-.143 8.706 0 19.16.559 27.853.247 4.28.312 8.84 2.119 12.8 3.9 8.44 16.133 4.96 22.919 3.64"
            fill="#1D1D1B" />
        <path
            d="M77.79 18.429c5.94-5.614 11.92-10.667 18.29-15.774a628.723 628.723 0 0019.591 21.68c1.599 1.694 3.25 2.667 4.914 4.294M77.788 18.427c-.143 8.706 0 19.16.56 27.853.246 4.28.311 8.84 2.118 12.8 3.9 8.44 16.133 4.96 22.919 3.64M90.566 64.56l2.574 21.28M125.641 83.333l14.001 1.6c8.138.933 16.822 1.907 24.115 6.053 8.242 4.68 11.453 14.547 11.271 23.747-.117 5.493-2.678 16.333-2.678 16.333s-4.784 21.56-6.578 28.107M125.641 83.333c-5.2 10.267-10.4 20.213-15.6 30.48-1.807 3.547-4.757 8.213-6.603 11.747M93.037 85.347a210.752 210.752 0 0010.53 40.106"
            stroke="#1D1D1B" stroke-width="1.937" stroke-linecap="round" stroke-linejoin="round" />
        <path
            d="M100.629 133.201c.11.087.227.163.351.227 3.107 1.681 6.24-4.001 4.394-6.575-2.899-3.974-7.943 3.935-4.745 6.348zM85.264 12.134a10.22 10.22 0 013.623 3.585 10.552 10.552 0 011.486 4.935c.26 3.583.22 7.183-.117 10.76-.26 3.48-.325 7.026-.858 10.48 1.534-.413 3.003-.707 4.55-1.12"
            stroke="#1D1D1B" stroke-width="1.937" stroke-linecap="round" stroke-linejoin="round" />
        <path
            d="M81.624 24.56c0 1.8-.286 4.694 1.872 5.334 2.6.747 3.666-2.254 4.16-4.188M87.018 51.547c.668.425 1.437.65 2.223.654 2.719.233 5.436-.47 7.722-2M81.506 115.68c-.598-8.133 0-16.32-.273-24.467 0-1.053 0-2.28-.936-2.933-3.185-2.28-3.575 6.72-3.705 8.293a1779.854 1779.854 0 00-1.456 20.454c-.598 9.04-1.612 17.706 4.68 24.96"
            stroke="#1D1D1B" stroke-width="1.937" stroke-linecap="round" stroke-linejoin="round" />
        <path
            d="M80.322 87.587c.26-1.72.69-5.214 3.094-5.2 2.197 0 1.846 10.306 1.86 11.613.103 6.453.298 13.067 0 19.493M88.76 91.413c.416 6.92 0 13.653 0 20.587M91.672 103.227v20.44c0 5.2.988 11.413 3.73 15.866 4.564 7.414 15.874 20.494 15.874 20.494M71.951 152.773l23.452-13.24M76.501 161.442l-4.55-8.669M149.302 112l-16.575 49.92M25.229 106.813v5.721M25.229 96.333v5.855M27.387 104.44h5.785M17.338 104.44h5.85M152.5 62.014v5.721M152.5 51.573v5.855M154.67 59.653h5.707M144.621 59.653h5.85M45.248 66.027a2.588 2.588 0 00-.563 1.164c-.087.432-.065.88.066 1.299.13.42.365.798.68 1.098.315.3.7.51 1.117.613 3.185.84 4.173-4.334 1.014-4.961a2.157 2.157 0 00-1.272.036c-.411.14-.774.401-1.042.75zM99.758 25.96c0 1.8-.325 4.708 2.145 5.335 2.951.733 4.16-2.268 4.719-4.201"
            stroke="#1D1D1B" stroke-width="1.937" stroke-linecap="round" stroke-linejoin="round" />
        <path
            d="M32.846 42.734a2.585 2.585 0 00-.57 1.151c-.09.428-.074.872.05 1.29.124.419.35.798.658 1.101a2.48 2.48 0 001.097.632c3.198.84 4.173-4.32 1.014-4.96a2.157 2.157 0 00-1.236.056 2.21 2.21 0 00-1.013.73zM185.012 89.666a2.586 2.586 0 00-.578 1.154c-.093.43-.076.876.048 1.296.124.421.352.802.661 1.106.309.305.689.522 1.104.632 3.185.827 4.173-4.334 1.014-4.974a2.183 2.183 0 00-1.235.061c-.398.14-.749.39-1.014.725z"
            fill="#1D1D1B" />
    </g>
    <defs>
        <clipPath id="clip0">
            <path fill="#fff" transform="translate(.672)" d="M0 0h208v160H0z" />
        </clipPath>
    </defs>
    <script xmlns="" />
</svg>